<?xml version="1.0" encoding="UTF-8" standalone="no"?>
<!DOCTYPE svg PUBLIC "-//W3C//DTD SVG 1.1//EN" "http://www.w3.org/Graphics/SVG/1.1/DTD/svg11.dtd">
<svg width="100%" height="100%" viewBox="0 0 661 176" version="1.1" xmlns="http://www.w3.org/2000/svg" xmlns:xlink="http://www.w3.org/1999/xlink" xml:space="preserve" xmlns:serif="http://www.serif.com/" style="fill-rule:evenodd;clip-rule:evenodd;stroke-linejoin:round;stroke-miterlimit:2;">
    <g id="Layer_1-2">
        <g>
            <path d="M82.54,172.73C77.19,172.73 72.66,171.72 68.93,169.69C65.2,167.67 62.45,164.63 60.67,160.58L3.08,33.97C0,26.85 -0.77,21.22 0.77,17.08C2.31,12.95 6.8,9.1 14.26,5.54C19.44,2.62 23.86,1.13 27.5,1.04C31.15,0.96 34.26,2.13 36.86,4.56C39.45,6.99 41.72,10.72 43.66,15.74L82.05,110.27L120.45,15.75C122.55,10.73 124.9,7 127.5,4.57C130.09,2.14 133.25,1.01 136.98,1.17C140.7,1.33 145,2.79 149.86,5.54C157.96,9.43 162.66,13.36 163.95,17.33C165.24,21.3 164.27,26.85 161.03,33.98L103.44,160.58C101.82,164.15 99.1,167.06 95.3,169.33C91.49,171.6 87.24,172.73 82.54,172.73Z" style="fill:rgb(34,34,34);fill-rule:nonzero;"/>
            <path d="M251.2,175.64C239.37,175.64 228.32,173.41 218.03,168.96C207.74,164.51 198.71,158.31 190.94,150.37C183.16,142.43 177.05,133.24 172.59,122.79C168.13,112.34 165.91,101.21 165.91,89.38C165.91,77.55 168.06,65.57 172.35,54.87C176.64,44.18 182.59,34.78 190.21,26.68C197.82,18.58 206.69,12.26 216.82,7.73C226.94,3.2 237.76,0.93 249.26,0.93C260.76,0.93 272.14,3.16 282.43,7.61C292.72,12.07 301.75,18.26 309.52,26.2C317.3,34.14 323.37,43.41 327.75,54.02C332.12,64.63 334.31,76.1 334.31,88.4C334.31,100.7 332.16,111.65 327.87,122.18C323.58,132.71 317.58,141.98 309.89,150C302.19,158.02 293.37,164.3 283.4,168.83C273.44,173.36 262.7,175.63 251.2,175.63L251.2,175.64ZM249.99,131.17C255.5,131.17 260.68,130.08 265.54,127.89C270.4,125.7 274.65,122.71 278.3,118.9C281.95,115.1 284.78,110.56 286.8,105.29C288.82,100.03 289.84,94.4 289.84,88.4C289.84,82.4 288.78,76.82 286.68,71.63C284.57,66.45 281.7,61.87 278.05,57.9C274.4,53.93 270.19,50.85 265.41,48.67C260.63,46.48 255.57,45.39 250.22,45.39C244.87,45.39 239.57,46.48 234.79,48.67C230.01,50.86 225.8,53.94 222.15,57.9C218.5,61.87 215.63,66.45 213.52,71.63C211.41,76.82 210.36,82.41 210.36,88.4C210.36,94.39 211.41,99.74 213.52,104.92C215.62,110.11 218.5,114.68 222.15,118.65C225.79,122.62 230.01,125.7 234.79,127.88C239.57,130.07 244.63,131.16 249.98,131.16L249.99,131.17Z" style="fill:rgb(34,34,34);fill-rule:nonzero;"/>
            <path d="M489.47,166.89C485.1,170.78 481.25,173.33 477.93,174.54C474.61,175.75 471.41,175.59 468.33,174.05C465.25,172.51 461.85,169.64 458.12,165.42L343.91,40.03C338.56,34.36 335.85,29.18 335.77,24.48C335.69,19.78 338.81,14.52 345.13,8.69C349.5,4.64 353.35,2.01 356.67,0.79C359.99,-0.42 363.23,-0.26 366.39,1.28C369.55,2.82 372.91,5.78 376.47,10.15L490.68,135.78C496.19,141.78 499.02,147 499.19,151.45C499.35,155.91 496.11,161.05 489.47,166.88L489.47,166.89ZM345.37,166.89C338.89,161.06 335.69,155.92 335.77,151.46C335.85,147.01 338.64,141.78 344.15,135.79L458.37,10.16C462.09,5.79 465.5,2.83 468.58,1.29C471.66,-0.25 474.86,-0.41 478.18,0.8C481.5,2.01 485.35,4.65 489.72,8.7C496.2,14.53 499.36,19.8 499.2,24.49C499.04,29.19 496.28,34.37 490.94,40.04L376.73,165.43C373.16,169.64 369.8,172.51 366.65,174.06C363.49,175.6 360.25,175.76 356.93,174.55C353.61,173.33 349.76,170.78 345.39,166.9L345.37,166.89Z" style="fill:rgb(34,34,34);fill-rule:nonzero;"/>
            <path d="M534.05,172.73C527.08,172.73 522.06,171.67 518.98,169.57C515.9,167.47 513.96,164.71 513.15,161.31C512.34,157.91 511.94,154.26 511.94,150.37L511.94,24.74C511.94,21.18 512.26,17.69 512.91,14.29C513.56,10.89 515.42,8.09 518.5,5.91C521.58,3.72 526.84,2.71 534.29,2.87L576.09,2.87C587.59,2.87 598.45,5.06 608.65,9.43C618.85,13.8 627.89,19.84 635.75,27.53C643.61,35.23 649.76,44.18 654.22,54.38C658.67,64.59 660.9,75.44 660.9,86.94C660.9,98.44 658.67,109.87 654.22,120.23C649.76,130.6 643.61,139.71 635.75,147.57C627.89,155.43 618.82,161.58 608.53,166.04C598.24,170.5 587.18,172.72 575.36,172.72L534.05,172.72L534.05,172.73ZM556.41,128.26L576.09,128.26C583.38,128.26 590.1,126.44 596.26,122.79C602.41,119.14 607.32,114.29 610.96,108.21C614.61,102.13 616.43,95.37 616.43,87.92C616.43,80.47 614.61,73.67 610.96,67.51C607.32,61.36 602.41,56.45 596.26,52.81C590.1,49.16 583.3,47.34 575.85,47.34L556.41,47.34L556.41,128.26Z" style="fill:white;fill-rule:nonzero;"/>
        </g>
    </g>
</svg>
