<?xml version="1.0" encoding="UTF-8"?>
<svg id="Layer_2" data-name="Layer 2" xmlns="http://www.w3.org/2000/svg" viewBox="0 0 660.9 175.64">
  <defs>
    <style>
      .cls-1 {
        fill: #00a9ff;
      }
    </style>
  </defs>
  <g id="Layer_1-2" data-name="Layer 1">
    <g>
      <path d="M82.54,172.73c-5.35,0-9.88-1.01-13.61-3.04-3.73-2.02-6.48-5.06-8.26-9.11L3.08,33.97C0,26.85-.77,21.22.77,17.08c1.54-4.13,6.03-7.98,13.49-11.54,5.18-2.92,9.6-4.41,13.24-4.5,3.65-.08,6.76,1.09,9.36,3.52,2.59,2.43,4.86,6.16,6.8,11.18l38.39,94.53L120.45,15.75c2.1-5.02,4.45-8.75,7.05-11.18,2.59-2.43,5.75-3.56,9.48-3.4,3.72.16,8.02,1.62,12.88,4.37,8.1,3.89,12.8,7.82,14.09,11.79,1.29,3.97.32,9.52-2.92,16.65l-57.59,126.6c-1.62,3.57-4.34,6.48-8.14,8.75-3.81,2.27-8.06,3.4-12.76,3.4Z"/>
      <path d="M251.2,175.64c-11.83,0-22.88-2.23-33.17-6.68-10.29-4.45-19.32-10.65-27.09-18.59-7.78-7.94-13.89-17.13-18.35-27.58-4.46-10.45-6.68-21.58-6.68-33.41s2.15-23.81,6.44-34.51c4.29-10.69,10.24-20.09,17.86-28.19,7.61-8.1,16.48-14.42,26.61-18.95,10.12-4.53,20.94-6.8,32.44-6.8s22.88,2.23,33.17,6.68c10.29,4.46,19.32,10.65,27.09,18.59,7.78,7.94,13.85,17.21,18.23,27.82,4.37,10.61,6.56,22.08,6.56,34.38s-2.15,23.25-6.44,33.78c-4.29,10.53-10.29,19.8-17.98,27.82-7.7,8.02-16.52,14.3-26.49,18.83-9.96,4.53-20.7,6.8-32.2,6.8ZM249.99,131.17c5.51,0,10.69-1.09,15.55-3.28,4.86-2.19,9.11-5.18,12.76-8.99,3.65-3.8,6.48-8.34,8.5-13.61,2.02-5.26,3.04-10.89,3.04-16.89s-1.06-11.58-3.16-16.77c-2.11-5.18-4.98-9.76-8.63-13.73-3.65-3.97-7.86-7.05-12.64-9.23-4.78-2.19-9.84-3.28-15.19-3.28s-10.65,1.09-15.43,3.28c-4.78,2.19-8.99,5.27-12.64,9.23-3.65,3.97-6.52,8.55-8.63,13.73-2.11,5.19-3.16,10.78-3.16,16.77s1.05,11.34,3.16,16.52c2.1,5.19,4.98,9.76,8.63,13.73,3.64,3.97,7.86,7.05,12.64,9.23,4.78,2.19,9.84,3.28,15.19,3.28Z"/>
      <path d="M489.47,166.89c-4.37,3.89-8.22,6.44-11.54,7.65-3.32,1.21-6.52,1.05-9.6-.49-3.08-1.54-6.48-4.41-10.21-8.63l-114.21-125.39c-5.35-5.67-8.06-10.85-8.14-15.55-.08-4.7,3.04-9.96,9.36-15.79,4.37-4.05,8.22-6.68,11.54-7.9,3.32-1.21,6.56-1.05,9.72.49,3.16,1.54,6.52,4.5,10.08,8.87l114.21,125.63c5.51,6,8.34,11.22,8.51,15.67.16,4.46-3.08,9.6-9.72,15.43ZM345.37,166.89c-6.48-5.83-9.68-10.97-9.6-15.43.08-4.45,2.87-9.68,8.38-15.67L458.37,10.16c3.72-4.37,7.13-7.33,10.21-8.87,3.08-1.54,6.28-1.7,9.6-.49,3.32,1.21,7.17,3.85,11.54,7.9,6.48,5.83,9.64,11.1,9.48,15.79-.16,4.7-2.92,9.88-8.26,15.55l-114.21,125.39c-3.57,4.21-6.93,7.08-10.08,8.63-3.16,1.54-6.4,1.7-9.72.49-3.32-1.22-7.17-3.77-11.54-7.65Z"/>
      <path class="cls-1" d="M534.05,172.73c-6.97,0-11.99-1.06-15.07-3.16-3.08-2.1-5.02-4.86-5.83-8.26-.81-3.4-1.21-7.05-1.21-10.94V24.74c0-3.56.32-7.05.97-10.45.65-3.4,2.51-6.2,5.59-8.38,3.08-2.19,8.34-3.2,15.79-3.04h41.8c11.5,0,22.36,2.19,32.56,6.56s19.24,10.41,27.1,18.1c7.86,7.7,14.01,16.65,18.47,26.85,4.45,10.21,6.68,21.06,6.68,32.56s-2.23,22.93-6.68,33.29c-4.46,10.37-10.61,19.48-18.47,27.34-7.86,7.86-16.93,14.01-27.22,18.47-10.29,4.46-21.35,6.68-33.17,6.68h-41.31ZM556.41,128.26h19.68c7.29,0,14.01-1.82,20.17-5.47,6.15-3.65,11.06-8.5,14.7-14.58,3.65-6.08,5.47-12.84,5.47-20.29s-1.82-14.25-5.47-20.41c-3.64-6.15-8.55-11.06-14.7-14.7-6.16-3.65-12.96-5.47-20.41-5.47h-19.44v80.92Z"/>
    </g>
  </g>
</svg>